<?xml version="1.0" encoding="utf-8"?>
<!-- Generator: Adobe Illustrator 19.2.1, SVG Export Plug-In . SVG Version: 6.00 Build 0)  -->
<svg version="1.1" id="layer" xmlns="http://www.w3.org/2000/svg" xmlns:xlink="http://www.w3.org/1999/xlink" x="0px" y="0px"
	 viewBox="0 0 652 652" style="enable-background:new 0 0 652 652;" xml:space="preserve">
<style type="text/css">
	.st0{fill:#020302;}
	.st1{fill:#F05024;}
	.st2{fill:none;stroke:#F05024;stroke-width:1.4951;}
	.st3{fill:#389ED8;}
	.st4{fill:none;stroke:#389ED8;stroke-width:1.4951;}
	.st5{fill:#7E427D;}
	.st6{fill:none;stroke:#7E427D;stroke-width:1.4951;}
	.st7{fill:#FFDD16;}
	.st8{fill:#F5B918;}
	.st9{fill:none;stroke:#F5B918;stroke-width:1.4951;}
	.st10{fill:#E9831C;}
	.st11{fill:none;stroke:#E9831C;stroke-width:1.4951;}
	.st12{fill:#00863E;}
	.st13{fill:none;stroke:#00863E;stroke-width:1.4951;}
</style>
<path class="st0" d="M142.1,328.4c0.9,3.5,4.1,5.5,9,5.5c4.2,0,6.7-1.4,6.7-4.4c0-4.4-5.5-4.1-11.1-5.5c-6.2-1.5-13.8-4.4-13.8-14
	c0-9.3,7-13.9,17.2-13.9c9.3,0,15.9,3.8,18.5,11.9l-10.4,2.8c-1.1-3.3-3.7-5.1-8.3-5.1c-4.2,0-5.9,1.6-5.9,4c0,3.8,4.4,4.4,10.7,5.7
	c6.7,1.3,14.1,4.2,14.1,14c0,9.4-6.6,14.1-17.7,14.1c-7.9,0-16.9-2.4-19.5-12.3C131.7,331.2,142.1,328.4,142.1,328.4z M204.3,316
	c-1.4-3.8-2.5-6.6-2.5-6.7h-0.2c-0.1,0.1-1.1,2.9-2.5,6.6l-3.3,9.1h11.8C207.6,325.1,204.3,316,204.3,316z M192.3,335l-2.7,7.6H178
	l17.6-45.6H208l17.6,45.6h-11.7l-2.7-7.6C211.2,335,192.3,335,192.3,335z M260.9,316c-1.4-3.8-2.5-6.6-2.5-6.7h-0.2
	c-0.1,0.1-1.1,2.9-2.5,6.6l-3.3,9.1h11.8L260.9,316z M248.8,335l-2.7,7.6h-11.5l17.6-45.6h12.4l17.6,45.6h-11.7l-2.7-7.6
	C267.7,335,248.8,335,248.8,335z M310.2,307.2v35.4h-10.9v-35.4h-13.9V297h38.7v10.2H310.2z M377.1,329.1
	c-3.4,8.9-11.8,14.4-21.6,14.4c-13.6,0-23.6-9.6-23.6-23.8c0-13.9,10-23.6,23.6-23.6c10.5,0,18.1,5.8,21.2,13.1l-10.8,2.9
	c-2.3-3.6-6-5.8-10.9-5.8c-7.4,0-12.1,5.5-12.1,13.4c0,8.1,5,13.3,12,13.3c6,0,9.7-3.1,11.5-6.9
	C366.4,326.2,377.1,329.1,377.1,329.1z M417.3,324.7h-17.5v17.9h-10.9V297h10.9v17.2h17.5V297h10.9v45.6h-10.9L417.3,324.7z
	 M442,342.6H453V297H442V342.6z M506.5,316c-1.4-3.8-2.5-6.6-2.5-6.7h-0.2c-0.1,0.1-1.1,2.9-2.5,6.6l-3.3,9.1h11.8L506.5,316
	L506.5,316z M494.4,335l-2.7,7.6h-11.5l17.6-45.6h12.4l17.6,45.6h-11.7l-2.7-7.6H494.4L494.4,335z M556.8,318.8c4,0,6.2-2,6.2-5.9
	c0-3.8-2.1-6.1-6.3-6.1h-7v11.9H556.8L556.8,318.8z M554.6,327.5h-4.9v15h-10.9V297h17.3c11.4,0,18.1,6,18.1,15.4
	c0,6.2-3.1,10.9-8.6,13l10.4,17.2h-12.9L554.6,327.5L554.6,327.5z M608.5,307.2v35.4h-10.9v-35.4h-13.9V297h38.7v10.2H608.5z"/>
<path class="st1" d="M86.6,298.3c-2.3-1.8-4.7-3.3-7.1-4.8c-2.4-1.3-4.8-2.5-7.4-3.6c-2.7,0.2-5.5,0.7-8.3,1.5
	c4.8,1.2,9.4,3.1,13.7,5.6c4.6,2.6,8.6,5.7,12,9.1C88.7,303.4,87.7,300.8,86.6,298.3"/>
<path class="st2" d="M86.6,298.3c-2.3-1.8-4.7-3.3-7.1-4.8c-2.4-1.3-4.8-2.5-7.4-3.6c-2.7,0.2-5.5,0.7-8.3,1.5
	c4.8,1.2,9.4,3.1,13.7,5.6c4.6,2.6,8.6,5.7,12,9.1C88.7,303.4,87.7,300.8,86.6,298.3z"/>
<path class="st1" d="M55.5,290c2.7-1.1,5.4-2,8.2-2.7c-3.8-0.9-7.7-1.4-11.7-1.5c-0.6,0-1.1,0-1.7,0c-1.5,1.3-3,2.8-4.3,4.4
	c1.9-0.3,3.9-0.5,6-0.5C53.2,289.8,54.4,289.9,55.5,290"/>
<path class="st2" d="M55.5,290c2.7-1.1,5.4-2,8.2-2.7c-3.8-0.9-7.7-1.4-11.7-1.5c-0.6,0-1.1,0-1.7,0c-1.5,1.3-3,2.8-4.3,4.4
	c1.9-0.3,3.9-0.5,6-0.5C53.2,289.8,54.4,289.9,55.5,290z"/>
<path class="st1" d="M103.5,320.8c-0.7,2.1-1.6,4.1-2.6,6c0.2,1.4,0.3,2.7,0.3,4c0,3.6-0.8,6.9-2.5,10c-2.1,3.6-5.2,6.4-9.2,8.3
	c-0.6,0.3-1.3,0.6-2,0.8c-1.1,1.9-2.4,3.6-3.9,5.3c2.7-0.5,5.2-1.4,7.6-2.5c4.6-2.2,8.4-5.5,10.9-9.9c2.1-3.7,3.1-7.7,3.1-11.9
	C105.3,327.5,104.7,324.1,103.5,320.8"/>
<path class="st2" d="M103.5,320.8c-0.7,2.1-1.6,4.1-2.6,6c0.2,1.4,0.3,2.7,0.3,4c0,3.6-0.8,6.9-2.5,10c-2.1,3.6-5.2,6.4-9.2,8.3
	c-0.6,0.3-1.3,0.6-2,0.8c-1.1,1.9-2.4,3.6-3.9,5.3c2.7-0.5,5.2-1.4,7.6-2.5c4.6-2.2,8.4-5.5,10.9-9.9c2.1-3.7,3.1-7.7,3.1-11.9
	C105.3,327.5,104.7,324.1,103.5,320.8z"/>
<path class="st1" d="M93,304c0.8,2.7,1.4,5.5,1.8,8.4c0.1,0.1,0.2,0.2,0.3,0.4c1.7,2.5,3.2,5.2,4.3,8.1c0.8-2,1.3-4,1.6-6
	c-0.8-1.5-1.7-2.9-2.6-4.3C96.7,308.2,94.9,306,93,304"/>
<path class="st2" d="M93,304c0.8,2.7,1.4,5.5,1.8,8.4c0.1,0.1,0.2,0.2,0.3,0.4c1.7,2.5,3.2,5.2,4.3,8.1c0.8-2,1.3-4,1.6-6
	c-0.8-1.5-1.7-2.9-2.6-4.3C96.7,308.2,94.9,306,93,304L93,304z"/>
<path class="st1" d="M34.8,337.8c-0.8-2.7-1.4-5.6-1.8-8.4c-0.1-0.1-0.2-0.2-0.3-0.4c-1.7-2.5-3.2-5.2-4.3-8.1
	c-0.7,1.9-1.3,3.9-1.6,6c0.8,1.5,1.7,2.9,2.6,4.3C31,333.6,32.8,335.7,34.8,337.8"/>
<path class="st2" d="M34.8,337.8c-0.8-2.7-1.4-5.6-1.8-8.4c-0.1-0.1-0.2-0.2-0.3-0.4c-1.7-2.5-3.2-5.2-4.3-8.1
	c-0.7,1.9-1.3,3.9-1.6,6c0.8,1.5,1.7,2.9,2.6,4.3C31,333.6,32.8,335.7,34.8,337.8L34.8,337.8z"/>
<path class="st1" d="M26.4,311c0-3.6,0.8-6.9,2.5-10c2.1-3.6,5.2-6.4,9.2-8.3c0.6-0.3,1.3-0.6,2-0.8c1.2-1.9,2.5-3.7,3.9-5.3
	c-2.7,0.5-5.2,1.4-7.6,2.5c-4.6,2.2-8.4,5.5-10.9,9.9c-2.1,3.7-3.1,7.7-3.1,11.9c0,3.3,0.6,6.7,1.7,10c0.7-2.1,1.6-4.1,2.6-6
	C26.6,313.7,26.4,312.3,26.4,311"/>
<path class="st2" d="M26.4,311c0-3.6,0.8-6.9,2.5-10c2.1-3.6,5.2-6.4,9.2-8.3c0.6-0.3,1.3-0.6,2-0.8c1.2-1.9,2.5-3.7,3.9-5.3
	c-2.7,0.5-5.2,1.4-7.6,2.5c-4.6,2.2-8.4,5.5-10.9,9.9c-2.1,3.7-3.1,7.7-3.1,11.9c0,3.3,0.6,6.7,1.7,10c0.7-2.1,1.6-4.1,2.6-6
	C26.6,313.7,26.4,312.3,26.4,311L26.4,311z"/>
<path class="st1" d="M72.2,351.8c-2.7,1.1-5.5,2-8.2,2.7c3.8,0.9,7.7,1.4,11.7,1.5c0.6,0,1.1,0,1.7,0c1.5-1.3,3-2.7,4.3-4.4
	c-2,0.3-4,0.5-6,0.5C74.5,352,73.4,351.9,72.2,351.8"/>
<path class="st2" d="M72.2,351.8c-2.7,1.1-5.5,2-8.2,2.7c3.8,0.9,7.7,1.4,11.7,1.5c0.6,0,1.1,0,1.7,0c1.5-1.3,3-2.7,4.3-4.4
	c-2,0.3-4,0.5-6,0.5C74.5,352,73.4,351.9,72.2,351.8z"/>
<path class="st1" d="M50.3,344.8c-4.4-2.5-8.4-5.5-12-9.1c0.8,2.8,1.7,5.4,2.8,7.8c2.2,1.7,4.6,3.3,7.1,4.8c2.4,1.4,4.9,2.6,7.4,3.6
	c2.7-0.2,5.5-0.7,8.3-1.5C59.2,349.2,54.6,347.3,50.3,344.8"/>
<path class="st2" d="M50.3,344.8c-4.4-2.5-8.4-5.5-12-9.1c0.8,2.8,1.7,5.4,2.8,7.8c2.2,1.7,4.6,3.3,7.1,4.8c2.4,1.4,4.9,2.6,7.4,3.6
	c2.7-0.2,5.5-0.7,8.3-1.5C59.2,349.2,54.6,347.3,50.3,344.8z"/>
<path class="st3" d="M38.3,335.8c-1.3-4.8-2-9.8-2-14.9c0-5.2,0.7-10.2,1.9-14.8c-2,2-3.7,4.1-5.3,6.4c-0.4,2.8-0.6,5.6-0.6,8.4
	c0,2.9,0.2,5.8,0.6,8.5C34.6,331.7,36.4,333.8,38.3,335.8"/>
<path class="st4" d="M38.3,335.8c-1.3-4.8-2-9.8-2-14.9c0-5.2,0.7-10.2,1.9-14.8c-2,2-3.7,4.1-5.3,6.4c-0.4,2.8-0.6,5.6-0.6,8.4
	c0,2.9,0.2,5.8,0.6,8.5C34.6,331.7,36.4,333.8,38.3,335.8L38.3,335.8z"/>
<path class="st3" d="M86.6,298.3c2.3,1.7,4.4,3.7,6.4,5.7c-1.2-4.3-3-8.4-5.4-12.2c-1.9-0.7-4-1.3-6-1.6c1.9,2.3,3.5,5,4.9,7.9
	L86.6,298.3"/>
<path class="st4" d="M86.6,298.3c2.3,1.7,4.4,3.7,6.4,5.7c-1.2-4.3-3-8.4-5.4-12.2c-1.9-0.7-4-1.3-6-1.6c1.9,2.3,3.5,5,4.9,7.9
	L86.6,298.3z"/>
<path class="st3" d="M94.8,312.5c-1.6-2.3-3.4-4.4-5.4-6.4c1.3,4.6,2,9.3,2,15c0,3.8-0.7,10.1-1.9,14.7c2-1.9,3.7-4.1,5.3-6.3
	c0.4-2.8,0.6-5.6,0.6-8.4C95.3,319.2,95.1,315.3,94.8,312.5"/>
<path class="st4" d="M94.8,312.5c-1.6-2.3-3.4-4.4-5.4-6.4c1.3,4.6,2,9.3,2,15c0,3.8-0.7,10.1-1.9,14.7c2-1.9,3.7-4.1,5.3-6.3
	c0.4-2.8,0.6-5.6,0.6-8.4C95.3,319.2,95.1,315.3,94.8,312.5L94.8,312.5z"/>
<path class="st3" d="M53.4,283.7c3.3-2,6.8-3,10.4-3c3.7,0,7.2,1.1,10.4,3c1,0.6,2,1.3,2.9,2.1c2.2,0.1,4.4,0.3,6.5,0.7
	c-2.2-2.5-4.6-4.6-7.3-6.2c-3.8-2.3-8-3.6-12.5-3.6c-4.5,0-8.7,1.3-12.5,3.6c-2.7,1.6-5.2,3.8-7.4,6.3c2.1-0.4,4.3-0.7,6.4-0.8
	C51.4,285.1,52.4,284.4,53.4,283.7"/>
<path class="st4" d="M53.4,283.7c3.3-2,6.8-3,10.4-3c3.7,0,7.2,1.1,10.4,3c1,0.6,2,1.3,2.9,2.1c2.2,0.1,4.4,0.3,6.5,0.7
	c-2.2-2.5-4.6-4.6-7.3-6.2c-3.8-2.3-8-3.6-12.5-3.6c-4.5,0-8.7,1.3-12.5,3.6c-2.7,1.6-5.2,3.8-7.4,6.3c2.1-0.4,4.3-0.7,6.4-0.8
	C51.4,285.1,52.4,284.4,53.4,283.7L53.4,283.7z"/>
<path class="st3" d="M93,337.7c-2,2.1-4.1,4-6.4,5.7c-1,2.1-2.2,4.2-3.5,6.1c-0.5,0.6-0.9,1.3-1.4,1.9c2-0.3,4-0.9,6-1.6
	c0.9-1.4,1.7-3,2.5-4.6C91.3,342.9,92.2,340.3,93,337.7"/>
<path class="st4" d="M93,337.7c-2,2.1-4.1,4-6.4,5.7c-1,2.1-2.2,4.2-3.5,6.1c-0.5,0.6-0.9,1.3-1.4,1.9c2-0.3,4-0.9,6-1.6
	c0.9-1.4,1.7-3,2.5-4.6C91.3,342.9,92.2,340.3,93,337.7z"/>
<path class="st3" d="M41.2,343.5c-2.3-1.7-4.4-3.7-6.4-5.7c1.2,4.3,3.1,8.4,5.4,12.2c1.9,0.7,3.9,1.2,6,1.6c-2-2.4-3.6-5.1-4.9-7.9
	C41.2,343.6,41.2,343.6,41.2,343.5"/>
<path class="st4" d="M41.2,343.5c-2.3-1.7-4.4-3.7-6.4-5.7c1.2,4.3,3.1,8.4,5.4,12.2c1.9,0.7,3.9,1.2,6,1.6c-2-2.4-3.6-5.1-4.9-7.9
	C41.2,343.6,41.2,343.6,41.2,343.5L41.2,343.5z"/>
<path class="st3" d="M74.3,358.1c-3.3,2-6.8,3-10.4,3c-3.7,0-7.2-1.1-10.4-3c-1-0.6-2-1.3-2.9-2.1c-2.2-0.1-4.3-0.3-6.5-0.7
	c2.2,2.5,4.6,4.6,7.3,6.2c3.8,2.3,8,3.6,12.5,3.6c4.5,0,8.7-1.3,12.5-3.6c2.7-1.6,5.2-3.8,7.4-6.3c-2.1,0.4-4.3,0.7-6.4,0.8
	C76.3,356.7,75.3,357.4,74.3,358.1"/>
<path class="st4" d="M74.3,358.1c-3.3,2-6.8,3-10.4,3c-3.7,0-7.2-1.1-10.4-3c-1-0.6-2-1.3-2.9-2.1c-2.2-0.1-4.3-0.3-6.5-0.7
	c2.2,2.5,4.6,4.6,7.3,6.2c3.8,2.3,8,3.6,12.5,3.6c4.5,0,8.7-1.3,12.5-3.6c2.7-1.6,5.2-3.8,7.4-6.3c-2.1,0.4-4.3,0.7-6.4,0.8
	C76.3,356.7,75.3,357.4,74.3,358.1z"/>
<path class="st3" d="M34.8,304c2-2.1,4.1-4,6.4-5.7c1-2.2,2.2-4.3,3.5-6.1c0.5-0.7,0.9-1.3,1.4-1.9c-2,0.3-4,0.9-6,1.6
	c-0.9,1.5-1.7,3-2.5,4.6C36.5,298.8,35.6,301.4,34.8,304"/>
<path class="st4" d="M34.8,304c2-2.1,4.1-4,6.4-5.7c1-2.2,2.2-4.3,3.5-6.1c0.5-0.7,0.9-1.3,1.4-1.9c-2,0.3-4,0.9-6,1.6
	c-0.9,1.5-1.7,3-2.5,4.6C36.5,298.8,35.6,301.4,34.8,304L34.8,304z"/>
<path class="st5" d="M94.8,312.4c-0.4-2.8-1-5.6-1.8-8.4c-2-2.1-4.1-4-6.4-5.7c1.1,2.4,2.1,5,2.8,7.8
	C91.4,308.1,93.2,310.2,94.8,312.4"/>
<path class="st6" d="M94.8,312.4c-0.4-2.8-1-5.6-1.8-8.4c-2-2.1-4.1-4-6.4-5.7c1.1,2.4,2.1,5,2.8,7.8
	C91.4,308.1,93.2,310.2,94.8,312.4L94.8,312.4z"/>
<path class="st5" d="M33,329.4c0.4,2.9,1,5.7,1.8,8.4c2,2.1,4.1,4,6.4,5.7c-1.2-2.5-2.1-5.1-2.8-7.8C36.4,333.8,34.6,331.7,33,329.4
	"/>
<path class="st6" d="M33,329.4c0.4,2.9,1,5.7,1.8,8.4c2,2.1,4.1,4,6.4,5.7c-1.2-2.5-2.1-5.1-2.8-7.8C36.4,333.8,34.6,331.7,33,329.4
	L33,329.4z"/>
<path class="st5" d="M81.6,351.5c-1.3,1.7-2.8,3.2-4.3,4.4c2.2-0.1,4.3-0.3,6.4-0.8c1.4-1.6,2.7-3.4,3.9-5.3
	C85.8,350.6,83.8,351.1,81.6,351.5"/>
<path class="st6" d="M81.6,351.5c-1.3,1.7-2.8,3.2-4.3,4.4c2.2-0.1,4.3-0.3,6.4-0.8c1.4-1.6,2.7-3.4,3.9-5.3
	C85.8,350.6,83.8,351.1,81.6,351.5L81.6,351.5z"/>
<path class="st5" d="M46.1,290.3c1.3-1.7,2.8-3.2,4.3-4.4c-2.2,0.1-4.4,0.3-6.4,0.8c-1.4,1.6-2.7,3.4-3.9,5.3
	C42,291.2,44,290.7,46.1,290.3"/>
<path class="st6" d="M46.1,290.3c1.3-1.7,2.8-3.2,4.3-4.4c-2.2,0.1-4.4,0.3-6.4,0.8c-1.4,1.6-2.7,3.4-3.9,5.3
	C42,291.2,44,290.7,46.1,290.3L46.1,290.3z"/>
<path class="st7" d="M77.6,344.8l1,1.7L77.6,344.8z"/>
<path class="st8" d="M40.2,350c-0.7-0.2-1.3-0.5-2-0.8c-3.9-1.9-7.1-4.6-9.1-8.2c-1.8-3.1-2.6-6.5-2.6-10.1c0-1.3,0.1-2.6,0.3-3.9
	c-1-1.9-1.9-3.9-2.6-6c-1.1,3.3-1.7,6.6-1.7,9.9c0,4.2,1,8.4,3.1,12.1c2.5,4.4,6.3,7.7,10.9,9.8c2.4,1.1,4.9,2,7.5,2.5
	C42.6,353.6,41.3,351.8,40.2,350"/>
<path class="st9" d="M40.2,350c-0.7-0.2-1.3-0.5-2-0.8c-3.9-1.9-7.1-4.6-9.1-8.2c-1.8-3.1-2.6-6.5-2.6-10.1c0-1.3,0.1-2.6,0.3-3.9
	c-1-1.9-1.9-3.9-2.6-6c-1.1,3.3-1.7,6.6-1.7,9.9c0,4.2,1,8.4,3.1,12.1c2.5,4.4,6.3,7.7,10.9,9.8c2.4,1.1,4.9,2,7.5,2.5
	C42.6,353.6,41.3,351.8,40.2,350z"/>
<path class="st8" d="M87.6,291.8c0.7,0.3,1.3,0.5,1.9,0.8c3.9,1.9,7.1,4.6,9.1,8.2c1.8,3.1,2.6,6.5,2.6,10.1c0,1.3-0.1,2.6-0.3,3.9
	c1.1,2,1.9,4,2.6,6c1.1-3.3,1.7-6.6,1.7-9.9c0-4.2-1-8.4-3.1-12.1c-2.5-4.4-6.3-7.7-10.9-9.8c-2.4-1.1-4.9-2-7.5-2.5
	C85.1,288.2,86.4,289.9,87.6,291.8"/>
<path class="st9" d="M87.6,291.8c0.7,0.3,1.3,0.5,1.9,0.8c3.9,1.9,7.1,4.6,9.1,8.2c1.8,3.1,2.6,6.5,2.6,10.1c0,1.3-0.1,2.6-0.3,3.9
	c1.1,2,1.9,4,2.6,6c1.1-3.3,1.7-6.6,1.7-9.9c0-4.2-1-8.4-3.1-12.1c-2.5-4.4-6.3-7.7-10.9-9.8c-2.4-1.1-4.9-2-7.5-2.5
	C85.1,288.2,86.4,289.9,87.6,291.8L87.6,291.8z"/>
<path class="st8" d="M64,354.5c-2.8-0.7-5.6-1.6-8.3-2.6c-1.2,0.1-2.5,0.2-3.6,0.2c-2,0-4-0.2-5.9-0.5c1.4,1.7,2.8,3.1,4.4,4.4
	c0.5,0,1,0,1.5,0C55.9,356,59.9,355.5,64,354.5"/>
<path class="st9" d="M64,354.5c-2.8-0.7-5.6-1.6-8.3-2.6c-1.2,0.1-2.5,0.2-3.6,0.2c-2,0-4-0.2-5.9-0.5c1.4,1.7,2.8,3.1,4.4,4.4
	c0.5,0,1,0,1.5,0C55.9,356,59.9,355.5,64,354.5z"/>
<path class="st8" d="M63.8,287.3c2.7,0.7,5.5,1.5,8.3,2.6c1.2-0.1,2.5-0.2,3.6-0.2c2,0,4,0.2,5.9,0.5c-1.3-1.6-2.8-3.1-4.4-4.4
	c-0.5,0-1,0-1.5,0C71.8,285.8,67.8,286.3,63.8,287.3"/>
<path class="st9" d="M63.8,287.3c2.7,0.7,5.5,1.5,8.3,2.6c1.2-0.1,2.5-0.2,3.6-0.2c2,0,4,0.2,5.9,0.5c-1.3-1.6-2.8-3.1-4.4-4.4
	c-0.5,0-1,0-1.5,0C71.8,285.8,67.8,286.3,63.8,287.3z"/>
<path class="st8" d="M33,312.5c0.4-2.9,1-5.7,1.8-8.4c-2,2.1-3.8,4.3-5.3,6.5c-1,1.4-1.9,2.9-2.7,4.4c0.3,2,0.9,4,1.7,6
	c1.1-2.9,2.5-5.6,4.3-8.2C32.8,312.7,32.9,312.6,33,312.5"/>
<path class="st9" d="M33,312.5c0.4-2.9,1-5.7,1.8-8.4c-2,2.1-3.8,4.3-5.3,6.5c-1,1.4-1.9,2.9-2.7,4.4c0.3,2,0.9,4,1.7,6
	c1.1-2.9,2.5-5.6,4.3-8.2C32.8,312.7,32.9,312.6,33,312.5L33,312.5z"/>
<path class="st8" d="M95,329c-0.1,0.1-0.2,0.3-0.3,0.4c-0.4,2.8-1,5.7-1.8,8.4c2-2.1,3.8-4.3,5.3-6.5c1-1.4,1.9-2.9,2.7-4.4
	c-0.3-2-0.9-4.1-1.7-6C98.2,323.7,96.8,326.4,95,329"/>
<path class="st9" d="M95,329c-0.1,0.1-0.2,0.3-0.3,0.4c-0.4,2.8-1,5.7-1.8,8.4c2-2.1,3.8-4.3,5.3-6.5c1-1.4,1.9-2.9,2.7-4.4
	c-0.3-2-0.9-4.1-1.7-6C98.2,323.7,96.8,326.4,95,329z"/>
<path class="st8" d="M79.6,348.2c2.4-1.4,4.8-3,7-4.7c1.2-2.5,2.1-5.1,2.8-7.8c-3.5,3.5-7.5,6.6-11.8,9.1c-4.3,2.5-8.9,4.4-13.6,5.6
	c2.8,0.7,5.6,1.2,8.3,1.4C74.7,350.8,77.1,349.6,79.6,348.2"/>
<path class="st9" d="M79.6,348.2c2.4-1.4,4.8-3,7-4.7c1.2-2.5,2.1-5.1,2.8-7.8c-3.5,3.5-7.5,6.6-11.8,9.1c-4.3,2.5-8.9,4.4-13.6,5.6
	c2.8,0.7,5.6,1.2,8.3,1.4C74.7,350.8,77.1,349.6,79.6,348.2"/>
<path class="st8" d="M50.2,297c4.3-2.5,8.9-4.4,13.6-5.6c-2.7-0.7-5.5-1.2-8.3-1.4c-2.5,1-4.9,2.2-7.4,3.6c-2.4,1.4-4.8,3-7,4.7
	c-1.2,2.5-2.1,5.1-2.8,7.8C41.8,302.6,45.8,299.5,50.2,297"/>
<path class="st9" d="M50.2,297c4.3-2.5,8.9-4.4,13.6-5.6c-2.7-0.7-5.5-1.2-8.3-1.4c-2.5,1-4.9,2.2-7.4,3.6c-2.4,1.4-4.8,3-7,4.7
	c-1.2,2.5-2.1,5.1-2.8,7.8C41.8,302.6,45.8,299.5,50.2,297z"/>
<path class="st10" d="M72,289.9c-2.7-1.1-5.4-2-8.3-2.6c-2.7,0.7-5.5,1.6-8.2,2.7c2.7,0.2,5.5,0.7,8.3,1.4
	C66.6,290.7,69.4,290.2,72,289.9"/>
<path class="st11" d="M72,289.9c-2.7-1.1-5.4-2-8.3-2.6c-2.7,0.7-5.5,1.6-8.2,2.7c2.7,0.2,5.5,0.7,8.3,1.4
	C66.6,290.7,69.4,290.2,72,289.9z"/>
<path class="st10" d="M99.3,320.8c0.8,2,1.3,4,1.7,6c1-2,1.9-4,2.6-6c-0.7-2.1-1.6-4.1-2.6-6C100.6,316.8,100.1,318.8,99.3,320.8"/>
<path class="st11" d="M99.3,320.8c0.8,2,1.3,4,1.7,6c1-2,1.9-4,2.6-6c-0.7-2.1-1.6-4.1-2.6-6C100.6,316.8,100.1,318.8,99.3,320.8z"
	/>
<path class="st10" d="M55.7,351.9c2.8,1.1,5.5,2,8.3,2.6c2.7-0.7,5.5-1.6,8.2-2.7c-2.8-0.2-5.5-0.7-8.2-1.4
	C61.2,351.1,58.5,351.6,55.7,351.9"/>
<path class="st11" d="M55.7,351.9c2.8,1.1,5.5,2,8.3,2.6c2.7-0.7,5.5-1.6,8.2-2.7c-2.8-0.2-5.5-0.7-8.2-1.4
	C61.2,351.1,58.5,351.6,55.7,351.9z"/>
<path class="st10" d="M28.4,321c-0.8-1.9-1.3-3.9-1.7-6c-1,1.9-1.9,3.9-2.6,6c0.7,2,1.6,4,2.6,6C27.1,325,27.7,323,28.4,321"/>
<path class="st11" d="M28.4,321c-0.8-1.9-1.3-3.9-1.7-6c-1,1.9-1.9,3.9-2.6,6c0.7,2,1.6,4,2.6,6C27.1,325,27.7,323,28.4,321z"/>
<path class="st12" d="M38.3,306.1c0.8-2.8,1.7-5.4,2.8-7.8c-2.3,1.7-4.4,3.7-6.4,5.7c-0.8,2.8-1.4,5.6-1.8,8.4
	C34.6,310.2,36.4,308.1,38.3,306.1"/>
<path class="st13" d="M38.3,306.1c0.8-2.8,1.7-5.4,2.8-7.8c-2.3,1.7-4.4,3.7-6.4,5.7c-0.8,2.8-1.4,5.6-1.8,8.4
	C34.6,310.2,36.4,308.1,38.3,306.1L38.3,306.1z"/>
<path class="st12" d="M81.6,290.2c2.1,0.3,4.1,0.9,6,1.6c-0.4-0.6-0.8-1.3-1.2-1.9c-0.8-1.2-1.7-2.3-2.7-3.4
	c-2.1-0.4-4.3-0.7-6.5-0.7C78.8,287.1,80.2,288.5,81.6,290.2"/>
<path class="st13" d="M81.6,290.2c2.1,0.3,4.1,0.9,6,1.6c-0.4-0.6-0.8-1.3-1.2-1.9c-0.8-1.2-1.7-2.3-2.7-3.4
	c-2.1-0.4-4.3-0.7-6.5-0.7C78.8,287.1,80.2,288.5,81.6,290.2L81.6,290.2z"/>
<path class="st12" d="M46.2,351.6c-2.1-0.3-4.1-0.9-6-1.6c1.1,1.9,2.4,3.6,3.9,5.2c2.1,0.4,4.3,0.7,6.5,0.7
	C48.9,354.7,47.5,353.2,46.2,351.6"/>
<path class="st13" d="M46.2,351.6c-2.1-0.3-4.1-0.9-6-1.6c1.1,1.9,2.4,3.6,3.9,5.2c2.1,0.4,4.3,0.7,6.5,0.7
	C48.9,354.7,47.5,353.2,46.2,351.6z"/>
<path class="st12" d="M89.4,335.7c-0.8,2.8-1.7,5.4-2.8,7.8c2.3-1.8,4.5-3.7,6.4-5.7c0.8-2.8,1.4-5.6,1.8-8.4
	C93.2,331.6,91.4,333.7,89.4,335.7"/>
<path class="st13" d="M89.4,335.7c-0.8,2.8-1.7,5.4-2.8,7.8c2.3-1.8,4.5-3.7,6.4-5.7c0.8-2.8,1.4-5.6,1.8-8.4
	C93.2,331.6,91.4,333.7,89.4,335.7z"/>
</svg>
